<svg id="Layer_1" enable-background="new 0 0 511.882 511.882" height="512" viewBox="0 0 511.882 511.882" width="512" xmlns="http://www.w3.org/2000/svg"><g><path d="m237.697 271.861h40.372c4.142 0 7.5-3.357 7.5-7.5s-3.358-7.5-7.5-7.5h-40.372c-4.142 0-7.5 3.357-7.5 7.5s3.358 7.5 7.5 7.5z"/><path d="m280.766 43.456h-47.766c-4.142 0-7.5 3.357-7.5 7.5v23.872c0 17.175 23.591 28.602 28.32 30.718.975.437 2.019.654 3.063.654s2.089-.218 3.063-.654c4.729-2.116 28.32-13.543 28.32-30.718v-23.872c0-4.143-3.358-7.5-7.5-7.5zm-7.5 31.372c0 2.727-3.237 6.717-8.66 10.675-2.817 2.056-5.687 3.721-7.757 4.829-7.53-4.007-16.349-10.81-16.349-15.504v-16.372h32.767v16.372z"/><path d="m464.323 480.313-4.401-49.179c-2.844-31.776-24.432-58.213-54.495-67.588-.326-3.4-1.406-6.71-3.253-9.703-3.175-5.145-8.163-8.746-14.13-10.159l-24.148-5.433c-9.718-2.303-19.475 2.061-24.467 10.113l-17.792-4.022-13.298-12.833c-.912-8.321-.76-16.727.477-25.01l1.981-13.256c24.111-22.489 35.897-42.53 35.897-60.928 0-2.334-.095-4.616-.289-6.875-.088-.894-.167-1.843-.24-2.836 14.706-2.915 25.958-15.877 26.148-31.383.107-8.726-3.212-16.951-9.346-23.16-4.338-4.392-9.704-7.38-15.561-8.76v-20.219c12.541-14.071 19.422-32.373 19.422-51.902 0-48.072-49.321-87.18-109.945-87.18s-109.945 39.108-109.945 87.18c0 18.793 7.591 37.132 21.418 51.982v20.112c-5.856 1.379-11.222 4.368-15.56 8.76-6.134 6.209-9.453 14.435-9.346 23.16.191 15.509 11.446 28.472 26.154 31.384-.075 1.047-.158 2.049-.25 2.988-.187 2.122-.281 4.393-.281 6.748 0 18.315 11.677 38.254 35.548 60.602l1.991 13.323c1.179 7.892 1.375 15.896.603 23.833l-14.811 13.754-19.971 4.52c-4.992-8.042-14.732-12.403-24.377-10.12l-24.315 5.472c-5.883 1.395-10.872 4.995-14.046 10.14-1.847 2.993-2.927 6.303-3.253 9.704-30.056 9.379-51.638 35.815-54.481 67.584l-4.403 49.189c-.723 8.078 2.002 16.146 7.478 22.134 5.483 5.996 13.291 9.435 21.42 9.435h87.175c4.142 0 7.5-3.357 7.5-7.5s-3.358-7.5-7.5-7.5h-15.853v-58.536c0-4.143-3.358-7.5-7.5-7.5s-7.5 3.357-7.5 7.5v58.536h-56.321c-3.987 0-7.664-1.618-10.351-4.558-2.68-2.931-3.961-6.721-3.607-10.673l4.403-49.189c2.269-25.355 19.32-46.496 43.147-54.313 4.152 6.303 11.273 10.214 18.888 10.214 1.706 0 3.437-.196 5.163-.604l24.314-5.473c5.884-1.394 10.872-4.994 14.047-10.139 1.746-2.83 2.803-5.944 3.191-9.15l15.053-3.407 12.957 45.577c.669 2.353 2.442 4.23 4.751 5.033.803.279 1.635.416 2.462.416 1.554 0 3.093-.483 4.387-1.416l16.638-11.996 5.528 14.465-22.776 85.212h-16.11c-4.142 0-7.5 3.357-7.5 7.5s3.358 7.5 7.5 7.5h236.88c8.13 0 15.938-3.439 21.422-9.436 5.477-5.988 8.203-14.055 7.479-22.134zm-304.627-116.043c-1.071 1.735-2.754 2.949-4.657 3.4l-24.314 5.473c-4.098.968-8.224-1.572-9.195-5.666-.47-1.982-.139-4.029.931-5.764 1.071-1.735 2.754-2.95 4.657-3.401l24.315-5.472c.59-.14 1.181-.207 1.763-.207 3.458 0 6.6 2.367 7.431 5.872.47 1.982.14 4.03-.931 5.765zm191.546-5.756c.829-3.497 3.957-5.861 7.457-5.861.599 0 1.209.069 1.82.215l24.148 5.433c1.986.471 3.669 1.686 4.74 3.421 1.07 1.734 1.4 3.781.931 5.764-.972 4.096-5.1 6.637-9.277 5.646l-24.15-5.434c-1.985-.471-3.668-1.685-4.738-3.42s-1.401-3.783-.931-5.764zm-41.78-5.075-10.511 37.321-29.714-21.423 30.204-25.57zm-87.511-45.602c10.228 7.913 22.889 12.263 35.814 12.262h.231c12.805 0 25.33-4.253 35.481-11.992-.813 7.1-.933 14.26-.387 21.383l-36.019 30.494-34.827-29.484c.665-7.544.569-15.138-.293-22.663zm47.655 80.259-6.142 15.663h-12.998l-5.974-15.633 12.578-9.069zm82.69-209.494c3.293 3.335 5.075 7.751 5.019 12.436-.092 7.467-4.97 13.819-11.671 16.184-.057-10.066.311-21.622 1.067-32.417 2.065.875 3.96 2.152 5.585 3.797zm-182.175 28.592c-6.702-2.364-11.58-8.717-11.672-16.184-.058-4.685 1.725-9.101 5.019-12.436 1.625-1.645 3.52-2.922 5.584-3.797.757 10.786 1.125 22.334 1.069 32.417zm-8.183-120.014c0-39.8 42.592-72.18 94.945-72.18 52.354 0 94.945 32.38 94.945 72.18 0 15.611-5.382 30.217-15.214 41.477h-157.56c-11.206-12.124-17.116-26.404-17.116-41.477zm21.419 56.476h149.05v14.743h-149.05zm.716 88.657c0-1.92.075-3.749.216-5.359 1.245-12.686 1.091-34.139-.294-53.554l147.773.025c-1.382 19.388-1.536 40.802-.301 53.389.149 1.743.226 3.594.226 5.501 0 16.771-15.986 38.565-46.245 63.037-7.736 6.287-17.482 9.746-27.482 9.746-.03 0-.061 0-.09 0-.028 0-.055 0-.083 0-9.988 0-19.75-3.467-27.512-9.781-30.229-24.446-46.208-46.232-46.208-63.004zm31.094 158.464-10.71-37.674 10.144-9.42 30.303 25.654zm15.014 106.105 20.88-78.122h11.774l21.099 78.122zm215.597-4.559c-2.688 2.939-6.365 4.559-10.353 4.559h-56.321v-58.536c0-4.143-3.357-7.5-7.5-7.5s-7.5 3.357-7.5 7.5v58.536h-64.631l-23.007-85.188 5.702-14.541 16.709 12.047c1.294.933 2.833 1.416 4.387 1.416.83 0 1.665-.138 2.471-.419 2.312-.807 4.084-2.691 4.747-5.048l12.696-45.08 13.04 2.948c.39 3.201 1.446 6.311 3.19 9.137 3.175 5.145 8.163 8.745 14.129 10.158l24.15 5.434c1.748.414 3.496.612 5.22.612 7.644 0 14.763-3.908 18.914-10.204 23.835 7.814 40.892 28.957 43.162 54.318l4.401 49.179c.353 3.953-.928 7.743-3.606 10.672z"/><path d="m340.566 430.846h-28.653c-4.143 0-7.5 3.357-7.5 7.5s3.357 7.5 7.5 7.5h28.653c4.143 0 7.5-3.357 7.5-7.5s-3.358-7.5-7.5-7.5z"/><path d="m209.731 438.346c0-4.143-3.358-7.5-7.5-7.5h-28.654c-4.142 0-7.5 3.357-7.5 7.5s3.358 7.5 7.5 7.5h28.654c4.142 0 7.5-3.358 7.5-7.5z"/></g></svg>